<?xml version="1.0" standalone="no"?>
<!DOCTYPE svg PUBLIC "-//W3C//DTD SVG 20010904//EN"
 "http://www.w3.org/TR/2001/REC-SVG-20010904/DTD/svg10.dtd">
<svg version="1.0" xmlns="http://www.w3.org/2000/svg"
 width="512.000000pt" height="512.000000pt" viewBox="0 0 512.000000 512.000000"
 preserveAspectRatio="xMidYMid meet">
<metadata>
Created by potrace 1.14, written by Peter Selinger 2001-2017
</metadata>
<g transform="translate(0.000000,512.000000) scale(0.100000,-0.100000)"
fill="#000000" stroke="none">
<path d="M386 4173 c-45 -13 -113 -63 -145 -107 l-34 -48 2 -175 c2 -152 5
-179 22 -209 24 -44 24 -52 -3 -81 -17 -18 -20 -28 -12 -40 30 -47 103 -74
174 -63 66 10 47 80 -21 80 -23 0 -28 -5 -31 -27 -4 -33 -29 -41 -53 -17 -18
18 -14 76 5 82 13 5 13 29 -1 34 -7 2 -12 77 -16 213 -5 197 -5 212 14 242 21
36 52 62 100 87 44 22 293 23 388 1 37 -9 72 -14 79 -12 6 2 -7 7 -29 11 -22
4 -46 13 -53 19 -14 11 -350 21 -386 10z"/>
<path d="M1255 4139 c-78 -5 -165 -26 -165 -38 0 -4 -15 -15 -32 -24 -22 -12
-41 -36 -57 -69 -26 -55 -25 -29 -6 -331 3 -48 11 -90 22 -107 15 -27 15 -30
0 -54 -23 -35 -22 -67 3 -73 11 -3 20 -9 20 -13 0 -13 89 -33 121 -26 66 13
76 43 25 71 -42 23 -71 14 -62 -19 7 -29 -8 -37 -46 -23 -22 7 -28 15 -28 40
0 17 7 38 16 48 15 17 15 19 0 34 -12 12 -16 36 -16 96 0 44 -5 122 -12 174
-9 75 -8 103 2 141 18 63 71 115 141 138 71 24 255 32 334 16 85 -18 144 -23
125 -12 -40 25 -246 42 -385 31z"/>
<path d="M4780 4040 c0 -35 -7 -37 -62 -10 -43 21 -124 28 -113 10 3 -6 17 -7
31 -4 25 6 94 -22 94 -39 0 -4 10 -21 22 -37 16 -23 30 -30 55 -30 28 0 33 4
33 23 0 42 -21 97 -40 107 -18 10 -20 7 -20 -20z"/>
<path d="M3506 4039 c-20 -15 -26 -29 -26 -58 0 -47 14 -61 65 -61 58 0 69 10
61 58 -5 37 -4 40 15 35 12 -3 28 -21 35 -39 8 -19 19 -34 24 -34 27 0 -13 74
-53 98 -43 28 -87 28 -121 1z m64 -64 c0 -17 -2 -18 -24 -9 -23 9 -20 24 4 24
11 0 20 -7 20 -15z"/>
<path d="M4066 4011 c-11 -4 -15 -10 -9 -14 5 -3 19 0 29 8 20 15 11 18 -20 6z"/>
<path d="M4550 4000 c-12 -11 -26 -17 -30 -15 -5 3 -6 -3 -3 -13 11 -42 98
-67 124 -36 11 13 10 21 -6 50 -21 40 -50 44 -85 14z"/>
<path d="M1320 3979 c-13 -17 -28 -28 -36 -25 -26 10 -15 -33 14 -51 15 -10
30 -22 33 -27 9 -11 67 14 74 32 3 7 0 22 -5 32 -6 10 -10 26 -10 35 0 15 7
16 48 10 49 -7 87 -34 98 -69 13 -40 44 -48 44 -12 0 27 -46 71 -97 93 -18 7
-57 13 -87 13 -50 0 -57 -3 -76 -31z"/>
<path d="M3963 3973 c-29 -15 -53 -30 -53 -34 0 -17 42 -15 64 2 13 10 29 19
35 19 6 0 11 5 11 10 0 6 7 10 16 10 8 0 12 5 9 10 -10 15 -26 12 -82 -17z"/>
<path d="M2785 3970 c-22 -10 -57 -26 -77 -34 -21 -8 -38 -19 -38 -24 0 -13
39 -22 46 -11 3 5 27 18 54 30 41 17 69 44 58 54 -2 2 -21 -5 -43 -15z"/>
<path d="M4683 3873 c-27 -10 -12 -33 26 -39 22 -3 54 -19 72 -33 28 -24 33
-34 33 -76 1 -64 -17 -76 -73 -47 -52 27 -64 27 -118 1 -35 -17 -41 -24 -32
-35 19 -23 67 -17 93 11 28 30 34 31 57 3 26 -29 24 -41 -13 -63 -55 -32 -215
-18 -260 22 -12 11 -18 31 -18 59 0 51 -13 63 -34 32 -33 -46 -11 -91 59 -120
104 -43 206 -61 220 -39 3 5 20 13 37 16 18 4 38 14 46 21 7 8 21 14 31 14 19
0 69 -68 72 -97 5 -50 -4 -52 -121 -27 -53 11 -106 15 -181 11 -117 -5 -165
-21 -190 -64 -15 -24 -15 -28 2 -58 11 -17 39 -41 65 -54 40 -21 59 -23 170
-22 146 1 161 4 232 38 64 31 74 52 65 132 -5 48 -13 69 -45 112 -35 45 -39
55 -29 76 16 36 14 48 -21 123 -28 57 -40 71 -76 89 -44 22 -49 23 -69 14z
m92 -415 c44 -6 86 -15 93 -21 21 -17 13 -44 -20 -69 -63 -47 -109 -58 -242
-58 -119 0 -126 1 -155 26 -18 14 -31 35 -31 48 0 36 23 74 45 74 11 0 47 5
80 10 63 9 101 8 230 -10z"/>
<path d="M4454 3847 c-5 -12 -17 -21 -27 -21 -23 2 -22 -19 3 -41 11 -10 20
-24 20 -31 0 -7 8 -11 18 -9 9 2 20 4 23 4 8 1 29 49 29 66 0 7 -13 23 -28 34
l-28 19 -10 -21z"/>
<path d="M619 3831 c27 -24 58 -26 85 -6 17 13 18 15 3 15 -9 0 -17 -5 -17
-11 0 -6 -5 -7 -12 -2 -7 4 -18 8 -24 9 -6 1 -22 5 -35 8 l-24 7 24 -20z"/>
<path d="M3942 3837 c-8 -9 -9 -18 -3 -21 5 -4 12 -2 16 4 10 16 95 12 145 -7
106 -39 167 -109 155 -177 -7 -35 -30 -53 -75 -58 -32 -4 -39 -34 -10 -43 53
-17 131 28 101 58 -16 16 -13 31 3 18 11 -9 15 -7 20 12 25 100 -112 215 -268
225 -56 3 -74 1 -84 -11z"/>
<path d="M505 3829 c-4 -6 -5 -12 -2 -15 2 -3 7 2 10 11 7 17 1 20 -8 4z"/>
<path d="M807 3818 c32 -36 40 -58 48 -131 9 -79 -4 -102 -61 -113 -19 -3 -34
-10 -34 -15 0 -14 37 -29 75 -29 33 0 37 4 55 46 40 92 12 215 -56 247 -46 22
-51 21 -27 -5z"/>
<path d="M3395 3826 c-17 -12 -14 -15 34 -31 66 -22 101 -58 101 -105 0 -49
-11 -63 -44 -54 -14 3 -29 10 -32 15 -9 15 -93 10 -125 -7 -39 -20 -35 -48 7
-52 23 -2 40 4 60 23 24 23 29 24 48 11 28 -18 26 -35 -7 -60 -56 -41 -220
-18 -266 38 -17 20 -7 60 20 89 29 31 51 76 45 92 -8 21 -51 46 -69 39 -9 -3
-13 -12 -10 -20 3 -9 -2 -14 -16 -14 -26 0 -26 -4 1 -40 l22 -30 -31 -43 c-29
-39 -30 -44 -17 -69 27 -52 143 -98 248 -98 50 0 69 5 100 26 49 34 70 24 74
-35 3 -36 5 -39 18 -27 17 17 18 42 3 85 -9 24 -9 35 0 44 20 20 13 82 -14
121 -14 20 -25 43 -25 50 0 14 -21 33 -57 54 -29 16 -45 15 -68 -2z"/>
<path d="M1365 3821 c-15 -7 -5 -10 40 -10 79 -1 123 -14 181 -54 60 -40 82
-71 90 -124 5 -36 3 -45 -19 -67 -17 -16 -37 -26 -56 -26 -37 0 -48 -15 -22
-29 55 -30 129 5 117 55 -4 15 -3 23 3 20 14 -9 18 13 10 63 -13 85 -138 171
-258 177 -36 2 -75 0 -86 -5z"/>
<path d="M3896 3822 c-3 -6 -1 -14 5 -17 14 -9 20 -2 10 14 -6 8 -11 9 -15 3z"/>
<path d="M453 3807 c-36 -56 -41 -91 -21 -148 17 -50 44 -80 89 -101 48 -21
77 -22 102 -4 26 20 20 42 -19 66 l-35 22 -23 -21 c-32 -30 -45 -26 -63 16
-15 37 -14 117 1 154 9 20 -20 34 -31 16z"/>
<path d="M1887 3813 c-22 -22 27 -43 81 -36 37 5 45 2 75 -28 18 -19 39 -53
47 -77 12 -39 12 -46 -5 -75 -32 -56 -64 -76 -121 -77 -56 0 -75 17 -49 44 8
8 15 21 15 28 0 16 -49 40 -64 30 -6 -4 -15 -7 -21 -7 -5 0 -10 -11 -10 -25 0
-18 12 -32 45 -55 40 -26 53 -30 117 -30 66 0 74 2 103 30 26 25 34 27 48 17
66 -47 157 -65 211 -42 40 16 75 87 66 132 -9 39 -96 133 -147 159 -42 21 -83
25 -94 7 -10 -16 24 -38 58 -38 33 0 102 -41 118 -69 5 -11 10 -42 10 -69 0
-41 -5 -55 -29 -81 -25 -27 -36 -31 -79 -31 -71 0 -112 34 -112 93 0 64 -48
126 -130 171 -62 33 -117 45 -133 29z"/>
<path d="M2675 3808 c-21 -12 -36 -30 -31 -36 2 -2 21 4 41 12 74 31 175 11
237 -47 31 -29 52 -96 43 -137 -4 -20 -2 -29 9 -33 10 -4 16 -1 16 8 0 8 5 15
10 15 27 0 -7 129 -42 158 -8 6 -41 25 -74 42 -48 24 -71 30 -124 30 -36 -1
-74 -6 -85 -12z"/>
<path d="M3791 3716 c-19 -23 -25 -83 -11 -116 22 -53 110 -91 164 -70 20 7
27 16 24 32 -4 27 -56 57 -68 39 -3 -7 -23 -14 -43 -18 -32 -5 -37 -3 -41 18
-10 46 -12 98 -4 93 10 -7 10 7 -1 24 -6 10 -10 10 -20 -2z"/>
<path d="M1206 3681 c-40 -76 34 -171 133 -171 36 0 41 3 47 27 5 19 2 30 -11
40 -30 21 -46 17 -39 -12 7 -28 -1 -32 -22 -10 -9 8 -25 15 -38 15 -33 0 -49
50 -30 95 16 40 18 57 4 35 -8 -13 -11 -13 -19 -1 -7 11 -13 7 -25 -18z"/>
<path d="M2530 3668 c0 -40 34 -90 85 -127 47 -34 95 -45 102 -23 3 7 -3 12
-15 12 -27 0 -75 26 -106 56 -20 20 -26 37 -26 68 0 35 -3 42 -20 42 -15 0
-20 -7 -20 -28z"/>
<path d="M2760 3580 c-11 -7 -6 -10 22 -10 27 0 47 -9 79 -36 30 -25 49 -34
63 -30 12 3 24 6 29 6 4 0 7 5 7 11 0 5 -4 8 -9 5 -5 -4 -39 10 -75 29 -69 37
-91 41 -116 25z"/>
<path d="M3225 3440 c-3 -5 -17 -10 -31 -10 -36 0 -30 -25 12 -50 43 -25 59
-21 68 15 5 20 2 31 -11 41 -22 16 -30 17 -38 4z m17 -42 c-7 -7 -12 -8 -12
-2 0 6 3 14 7 17 3 4 9 5 12 2 2 -3 -1 -11 -7 -17z"/>
<path d="M1955 3420 c-4 -7 2 -9 19 -4 14 3 42 3 61 0 40 -8 65 -45 74 -111 4
-26 11 -40 21 -40 10 0 17 20 25 72 10 68 10 71 -8 62 -13 -8 -27 -5 -53 10
-38 23 -128 29 -139 11z"/>
<path d="M2194 3421 c3 -4 31 -8 62 -8 50 0 61 -4 81 -27 17 -21 23 -39 23
-77 0 -70 -17 -85 -94 -82 -40 1 -55 -1 -45 -8 7 -5 42 -9 76 -9 52 0 61 3 57
15 -4 11 -2 13 9 9 19 -7 47 32 47 66 0 35 -34 87 -72 110 -23 14 -51 20 -91
20 -32 0 -56 -4 -53 -9z"/>
<path d="M3130 3360 c0 -33 35 -72 88 -97 53 -26 66 -28 184 -28 73 0 131 4
137 10 7 7 -31 10 -118 10 -79 0 -133 4 -142 11 -8 6 -26 14 -40 17 -15 4 -43
25 -63 47 -37 42 -46 47 -46 30z"/>
<path d="M1854 3347 c-19 -50 84 -138 158 -136 30 1 29 2 -12 11 -51 10 -107
63 -112 106 -3 29 -25 41 -34 19z"/>
<path d="M3865 2991 c-254 -71 -433 -236 -516 -478 -17 -51 -17 -53 2 -78 11
-14 29 -25 39 -25 22 0 58 43 67 79 19 81 106 205 193 276 177 144 411 177
665 93 218 -72 414 -282 506 -544 25 -71 38 -312 20 -381 -6 -24 -16 -61 -21
-83 -14 -57 -89 -198 -142 -267 -79 -102 -168 -174 -338 -274 -41 -24 -98 -66
-125 -94 -52 -51 -60 -68 -140 -283 -43 -115 -113 -198 -210 -250 -43 -23 -62
-26 -135 -26 -132 0 -218 52 -272 164 -24 48 -30 154 -14 236 8 38 6 44 -16
58 -62 41 -102 -25 -102 -169 0 -52 5 -105 10 -117 79 -178 171 -256 330 -279
123 -19 218 7 326 88 96 73 146 150 213 333 53 143 71 169 157 224 40 26 108
70 151 97 156 101 281 243 359 409 72 153 83 200 83 385 -1 140 -3 169 -24
235 -94 299 -314 545 -572 639 -138 51 -371 66 -494 32z"/>
<path d="M300 2780 c-11 -7 -16 -33 -19 -95 l-3 -85 -34 0 -34 0 0 -795 0
-795 409 0 c361 0 410 -2 422 -16 7 -9 33 -30 58 -47 38 -26 54 -31 105 -31
67 0 107 16 156 64 l31 30 409 0 410 0 0 795 0 795 -35 0 c-31 0 -35 3 -40 33
-3 17 -6 59 -8 92 l-2 60 -383 3 c-245 1 -398 -2 -423 -8 -22 -6 -54 -27 -74
-47 l-35 -37 -38 37 c-21 21 -54 42 -73 47 -44 13 -779 13 -799 0z m813 -93
c15 -10 39 -42 53 -72 30 -67 54 -72 78 -17 26 58 31 65 60 86 26 20 40 21
394 21 l367 0 0 -760 0 -760 -380 -5 c-343 -4 -384 -7 -408 -23 l-27 -17 0
440 0 440 200 0 200 0 0 35 0 35 -200 0 -199 0 -3 158 -3 157 -32 3 -32 3 -3
-158 -3 -158 -207 -3 -208 -2 0 -35 0 -35 208 -2 207 -3 3 -425 c1 -234 0
-431 -3 -439 -4 -10 -11 -9 -33 5 -25 17 -58 19 -412 24 l-385 5 -3 750 c-1
413 0 756 3 763 4 10 78 12 373 10 334 -3 370 -5 395 -21z"/>
<path d="M2845 2656 c-19 -29 -16 -37 54 -131 138 -185 211 -409 211 -649 0
-137 -10 -203 -51 -334 -39 -125 -88 -221 -164 -322 -69 -92 -78 -121 -42
-144 36 -24 58 -10 124 77 161 214 238 446 238 722 0 165 -24 306 -71 412 -8
17 -14 35 -14 40 0 19 -89 182 -130 239 -87 119 -123 140 -155 90z"/>
<path d="M3943 2660 c-78 -16 -190 -76 -247 -132 -96 -97 -119 -195 -71 -304
72 -163 75 -373 6 -484 -8 -14 -40 -53 -70 -88 -49 -56 -55 -69 -59 -117 -5
-56 16 -113 56 -154 38 -40 146 -111 168 -111 22 0 54 33 54 55 0 16 -30 44
-88 85 -84 58 -104 116 -56 161 39 36 109 147 129 204 10 30 19 94 22 157 l6
108 34 6 c108 20 235 -23 297 -101 44 -54 58 -92 59 -162 2 -89 -19 -146 -69
-195 -50 -49 -56 -80 -19 -104 27 -18 51 -13 90 18 65 51 105 155 105 272 0
114 -34 198 -112 273 -83 80 -191 116 -337 111 l-71 -3 -36 88 -36 88 26 53
c29 60 81 105 164 144 51 24 69 27 162 27 100 0 108 -2 175 -35 90 -45 191
-144 229 -224 65 -136 55 -321 -24 -462 -25 -44 -20 -81 13 -93 35 -13 58 2
88 57 62 117 87 249 70 377 -7 46 -18 96 -26 112 -8 15 -15 32 -15 37 0 20
-74 128 -118 171 -141 140 -322 200 -499 165z"/>
<path d="M2607 2439 c-9 -6 -22 -19 -28 -30 -9 -17 -3 -32 39 -92 99 -145 142
-280 142 -444 0 -151 -39 -284 -122 -411 -35 -54 -40 -67 -32 -90 7 -21 17
-28 41 -30 28 -3 36 3 64 40 46 63 114 212 135 298 32 132 20 364 -25 475 -51
126 -129 253 -171 278 -18 11 -31 12 -43 6z"/>
<path d="M2357 2162 c-24 -26 -22 -45 15 -121 29 -60 32 -74 32 -166 1 -93 -1
-105 -33 -172 -38 -82 -37 -119 4 -129 30 -7 40 -1 69 44 91 145 90 383 -2
517 -32 45 -60 55 -85 27z"/>
</g>
</svg>
